<svg version="1.2" xmlns="http://www.w3.org/2000/svg" viewBox="0 0 915 915" width="915" height="915"><style>.a{stroke:#000;stroke-width:.5}.b{fill:#2ec6b3}.c{fill:#31cb71}.d{fill:#2dc88a}.e{fill:#2ec7b3}.f{fill:#2cc894}.g{fill:#2fca7e}.h{fill:#2fc7bf}.i{fill:#16ace5}.j{fill:#2dc7a0}.k{fill:#2ec7ad}.l{fill:#30c6cb}.m{fill:#1cb1e8}.n{fill:#2dc89b}.o{fill:#2ec7b8}.p{fill:#32cb6c}.q{fill:#30c6da}.r{fill:#2fc6c2}.s{fill:#2ec7ab}.t{fill:#30ca79}.u{fill:#30c6d1}.v{fill:#2dc7a1}.w{fill:#2dc986}.x{fill:#2fc6c6}.y{fill:#2ec7b0}.z{fill:#31c6e0}.A{fill:#30c6d3}.B{fill:#2dc7a5}.C{fill:#31c6df}.D{fill:#30c6cc}.E{fill:#2ec7b6}.F{fill:#31c6dd}.G{fill:#2dc988}.H{fill:#2fc6c8}.I{fill:#2cc893}.J{fill:#31c6db}.K{fill:#2ec7af}.L{fill:#2fc7bd}.M{fill:#30c6cd}.N{fill:#31c6de}.O{fill:#2fc7c0}.P{fill:#2dc7a4}.Q{fill:#2ec7b2}.R{fill:#30c6d6}.S{fill:#30c6cf}.T{fill:#2fc7ba}.U{fill:#2ec7b4}.V{fill:#2dc7a2}.W{fill:#2dc89c}.X{fill:#2dc889}.Y{fill:#2fca7f}.Z{fill:#25baed}.a0{fill:#30c3f1}.a1{fill:none}</style><path fill-rule="evenodd" class="a" d="m428.8 474.5q2 0 4.1 0c0 16.4 0 32.8-0.1 49.2q-1.8 0-3.7 0-0.1-2.1-0.3-4.3c-2.1 2.6-5 4.5-8.3 4.8-4.2 0.5-9 0.3-12.1-2.8-3.9-3.8-4.3-9.6-4.2-14.7-0.2-4.7 0.4-10 3.8-13.6 3.2-3.6 8.4-4.4 13-4 2.7 0.1 5.2 1 7.6 2.1 0.3-5.6 0.1-11.1 0.2-16.7zm-19.1 23.5c-1.5 4-1.3 8.3-1.1 12.5 0.3 3.5 1.3 7.6 4.7 9.3 3.9 1.6 8.8 1.3 12.3-1.3 2.6-2.2 3-5.9 3.1-9.1 0.1-4.8 0-9.6 0.1-14.5-4-2.1-8.7-2.8-13.1-1.9-2.7 0.6-5.1 2.5-6 5z"/><path class="a" d="m315.8 476.6q2.3 0 4.6 0c8 13.3 16 26.6 24.1 39.9 0-13.3-0.1-26.6 0-39.9q2.1 0 4.3 0c0 15.7 0 31.4-0.1 47.1q-2.2 0-4.5 0c-8-13.3-16-26.8-24.3-40 0.1 13.3 0 26.6 0.1 39.9q-2.1 0.1-4.2 0.1 0-23.5 0-47.1z"/><path class="a" d="m392.9 477.5c1.9-1.6 5.7-0.6 5.3 2.3 0.3 2-1.6 3.4-3.5 3-2.7 0.2-3.3-3.7-1.8-5.3z"/><path fill-rule="evenodd" class="a" d="m366.8 489.5c4.8-0.8 10.1-0.8 14.3 1.9 3.8 2.7 4.9 7.7 5 12.1 0 5.3 0.5 11.2-2.6 15.8-2.6 3.9-7.5 5.2-11.9 5.1-4.1 0.1-8.8-0.6-11.7-3.9-2.7-3-3.2-7.2-3.4-11.1 0-4.8-0.3-9.9 2.1-14.2 1.6-3.1 4.8-5.1 8.2-5.7zm-0.2 3.8c-3.8 1.1-5.5 5.2-5.6 8.9-0.3 4.7-0.6 9.7 1.2 14.1 1.4 3.4 5.4 4.5 8.8 4.5 3.3 0.1 7.2-0.6 9.1-3.7 2.3-3.9 1.7-8.6 1.8-13-0.1-3.6-0.7-8-4.1-10-3.4-1.8-7.5-1.8-11.2-0.8z"/><path fill-rule="evenodd" class="a" d="m442.8 490.3c5.8-1.4 12.3-2.2 17.8 0.5 3.8 1.9 5.6 6.2 5.6 10.2 0.2 7.6 0 15.1 0.1 22.7q-1.9 0-3.7 0c-0.1-1.2-0.2-2.5-0.2-3.8-2.8 3.8-7.9 4.7-12.4 4.4-3.2-0.2-6.7-1-8.9-3.5-2.2-2.5-2.3-6.2-2-9.4 0.3-2.7 1.6-5.5 4-6.8 3.1-1.8 6.7-2 10.2-2 3.1 0.1 6.4 0.8 8.9 2.8 0.1-3.9 0.2-8.9-3.7-11.2-5-2.7-11-1.4-16.4-0.4q0.3-1.8 0.7-3.5zm5.3 15.9c-2.5 0.5-4.7 2.6-4.8 5.2-0.3 3-0.2 6.9 2.9 8.4 3.6 1.4 7.9 1.3 11.6 0 4.7-1.6 6-8.7 2.4-12-3.5-2.5-8.1-2-12.1-1.6z"/><path class="a" d="m393.1 489.8q2.1 0 4.2 0c0 11.3 0 22.6 0 33.9q-2.1 0-4.2 0.1c-0.1-11.4-0.1-22.7 0-34z"/><path class="a" d="m654.5 543.2c1.5-0.1 2.9-0.1 4.4-0.1 0 16.3-0.1 32.7 0 49-1.4 0.1-2.8 0.1-4.3 0.1-0.1-16.3 0.1-32.6-0.1-49z"/><path class="a" d="m315.8 545.1q2.2 0 4.5 0 0 23.6 0 47.1-2.2 0-4.5 0 0-23.5 0-47.1z"/><path fill-rule="evenodd" class="a" d="m695.3 545.1q2.6 0 5.2 0c5.6 15.7 11.5 31.4 16.9 47.1q-2.3 0-4.7 0c-1.6-4.8-3.3-9.5-4.9-14.3-6.6-0.1-13.3 0-20 0q-2.4 7.1-4.9 14.3-2.2 0-4.4 0c5.6-15.7 11.2-31.4 16.8-47.1zm0.8 9.1c-2.2 6.6-4.6 13.1-6.8 19.7q8.5 0 17.1 0c-2.8-8-5.7-16-8.5-24-0.8 1.3-1.2 2.8-1.8 4.3z"/><path class="a" d="m537.8 546c1.8-1.4 5.5-0.6 5.2 2.3 0.5 2.5-2.5 3.8-4.5 2.9-1.9-0.8-2-3.8-0.7-5.2z"/><path class="a" d="m723.4 545.8c1.5-0.7 4-0.6 4.7 1.2 0.2 1.4 0.3 3.4-1.3 4.2-1.6 0.5-4.1 0.4-4.5-1.7-0.2-1.3-0.3-3 1.1-3.7z"/><path class="a" d="m368 549.7q2.1-0.4 4.2-0.8c-0.1 3.2-0.1 6.4-0.1 9.5 3.8 0.1 7.6 0 11.3 0.1q-0.3 1.8-0.6 3.6-5.3 0-10.7 0c0.1 6.8 0 13.6 0.1 20.4 0.1 2.3 0.6 5.2 3 6.2 2.7 1 5.6 0.5 8.4 0.1q-0.4 1.7-0.7 3.5c-3.4 0.8-7.3 1-10.6-0.5-3.2-1.6-4.1-5.5-4.3-8.8 0-6.9 0-13.9 0-20.9q-3.4 0-6.8 0 0.3-1.9 0.7-3.7c2 0.1 4.1 0 6.1 0 0-2.9 0.1-5.8 0-8.7z"/><path class="a" d="m516.6 549.7q2.1-0.4 4.2-0.8c-0.1 3.2 0 6.4 0 9.5 3.8 0 7.5 0.1 11.3 0q-0.3 1.8-0.6 3.6c-3.6 0.1-7.2 0.1-10.7 0.1 0 6.5-0.1 13.1 0 19.7 0.1 2.4 0.4 5.5 2.8 6.7 2.8 1.2 5.9 0.8 8.7 0.2q-0.4 1.8-0.7 3.6c-3.6 0.8-7.7 1.1-11-0.7-3.1-2-3.8-5.8-3.9-9.2-0.1-6.8 0-13.6 0-20.3q-3.4 0-6.8 0 0.3-1.8 0.6-3.7c2.1 0 4.1 0.1 6.2 0-0.1-2.9 0-5.8-0.1-8.7z"/><path class="a" d="m859.2 549.7q2.1-0.4 4.3-0.8 0 4.8 0 9.5c3.7 0 7.4 0.1 11.1 0q-0.3 1.8-0.6 3.7-5.3 0-10.5 0 0 10.2 0 20.4c-0.1 2.3 0.6 5.1 2.9 6.2 2.7 1 5.7 0.6 8.4 0q-0.3 1.8-0.6 3.5c-3.5 0.9-7.4 1.1-10.7-0.4-3.1-1.7-4.1-5.4-4.2-8.6-0.2-7-0.1-14-0.1-21-2.2-0.2-4.5-0.1-6.7-0.1 0.3-1.2 0.1-2.6 0.8-3.6 1.9-0.1 3.9 0 5.9-0.1 0-2.9 0-5.8 0-8.7z"/><path class="a" d="m340.6 558c4.1-0.8 8.7-0.6 12.2 1.9 3 2.1 4.1 5.9 4 9.4 0 7.7 0.1 15.3 0 22.9q-2 0-4.1 0c0-7 0.1-14 0-20.9-0.2-3.2-0.6-7.2-3.8-8.9-3.3-1.5-7.2-1.3-10.5-0.1-3.7 1.3-5.1 5.4-5.2 9-0.2 7 0 13.9-0.1 20.9q-2 0-4.1 0c0.1-11.3-0.1-22.5 0.1-33.8q1.7 0 3.5 0 0.3 2.2 0.4 4.4c2-2.3 4.5-4.3 7.6-4.8z"/><path fill-rule="evenodd" class="a" d="m389.5 563.4c2.5-4.3 7.7-6.1 12.4-5.8 4.4-0.1 9 2 10.9 6.1 1.7 3.5 1.9 7.7 1.4 11.5-0.2 1.5-1.9 1.6-3.1 1.7-6.6 0-13.2 0-19.9 0 0.2 4.1 0.8 9.3 5 11.2 5.2 2.1 11 1.4 16.3 0.3q-0.3 1.7-0.5 3.5c-5.7 1.5-12.1 1.8-17.7-0.4-4.4-1.8-6.7-6.5-7-11.1-0.4-5.7-0.6-11.9 2.2-17zm6.2-1c-3.9 2.3-4.3 7.2-4.5 11.2q9.6 0 19.3 0c0.1-3.8 0-8.4-3.4-10.9-3.4-2-7.9-1.9-11.4-0.3z"/><path class="a" d="m456.6 558c4-0.7 8.6-0.6 12 1.9 2.9 2.2 4 6 4 9.4-0.1 7.7 0 15.3-0.1 22.9q-2 0-4.1 0c0-6.8 0-13.5 0-20.3-0.1-2.8-0.3-5.9-2.1-8.2-2-2.1-5.1-2.4-7.8-2.3-2.7 0-5.6 0.8-7.4 3.1-2 2.4-2.2 5.7-2.3 8.7 0 6.3 0.1 12.7 0 19q-2 0-4.1 0c0.1-11.3-0.1-22.5 0.1-33.8q1.7 0 3.5 0 0.3 2.2 0.5 4.4c2-2.4 4.6-4.4 7.8-4.8z"/><path fill-rule="evenodd" class="a" d="m482.3 558.9c5.5-1.4 11.5-2.1 16.9 0 4.1 1.6 6.5 6.1 6.4 10.4 0 7.6 0.1 15.3 0 22.9q-1.8 0-3.5 0-0.2-1.8-0.3-3.6c-2.1 2.5-5.1 4-8.3 4.2-4.3 0.3-9.3 0.1-12.6-3-2.8-3.3-2.8-8-1.8-12 0.9-3.8 4.7-5.8 8.4-6.3 4.8-0.6 10.2-0.6 14.2 2.5 0-3.9 0.2-9.1-3.8-11.3-5-2.6-11-1.3-16.3-0.3q0.3-1.8 0.7-3.5zm4.9 16c-3.7 0.7-5 4.9-4.5 8.2 0 2.4 1.4 4.9 3.8 5.6 3.7 1.1 7.8 1 11.3-0.6 5.1-2.1 5.4-10.7 0.1-12.7-3.4-1.2-7.2-1.3-10.7-0.5z"/><path fill-rule="evenodd" class="a" d="m559.7 558c5.1-0.8 11.1-0.7 15.2 2.9 3.7 3.7 3.9 9.4 3.8 14.3 0.2 4.7-0.2 9.8-3.3 13.5-2.7 3.4-7.3 4.4-11.5 4.3-4.2 0-8.9-0.8-11.7-4.2-2.8-3.4-3-8-3.1-12.2 0-4.6 0-9.6 2.6-13.5 1.7-2.9 4.8-4.5 8-5.1zm-0.2 3.8c-2.4 0.6-4.4 2.5-5.1 4.8-1.3 3.7-0.8 7.5-0.9 11.3 0.1 3.1 0.4 6.6 2.6 9 2 2.1 5.1 2.4 7.8 2.5 3.2 0 6.9-0.7 8.7-3.5 2.4-4 1.7-8.9 1.8-13.3 0-3.7-0.7-8.2-4.3-10.2-3.3-1.5-7.1-1.5-10.6-0.6z"/><path class="a" d="m589.8 562.7c4.6-5.6 13.3-6.6 19.4-3.2 3 2 4.4 5.7 4.4 9.1 0 7.9-0.1 15.7 0.1 23.5q-2.1 0.1-4.2 0.1c0-7.2 0-14.4 0-21.5-0.2-3.2-0.9-7.2-4.2-8.5-3.2-1.2-6.9-1.1-10.1 0.1-3.4 1.3-5 5-5.1 8.4-0.1 7.2 0 14.3 0 21.5q-2.2 0-4.3 0c0-11.2 0-22.5 0-33.7q1.8-0.1 3.7 0 0.1 2.1 0.3 4.2z"/><path fill-rule="evenodd" class="a" d="m623.4 558.9c5.6-1.4 11.8-2.1 17.3 0.2 3.9 1.7 6 6 6.1 10.1 0.2 7.7 0 15.3 0 23q-1.8 0-3.7 0c-0.1-1.2-0.2-2.4-0.2-3.6-2 2.3-4.8 3.9-7.8 4.1-4.4 0.4-9.3 0.3-12.8-2.6-3.2-3-2.9-7.7-2.3-11.7 0.7-3.9 4.5-6.3 8.3-6.9 4.8-0.6 10.4-0.7 14.5 2.5 0-3.9 0.2-9.1-3.8-11.3-5.1-2.6-11-1.3-16.3-0.3q0.3-1.7 0.7-3.5zm4.7 16.1c-2.8 0.7-4.5 3.4-4.3 6.2-0.3 2.8 0.4 6.2 3.4 7.3 3.7 1.3 8.1 1.2 11.7-0.4 5.1-2.1 5.3-10.8 0-12.8-3.4-1.2-7.3-1.2-10.8-0.3z"/><path fill-rule="evenodd" class="a" d="m763.5 562.6c3-4.3 8.8-5.5 13.8-4.8 3.6 0.3 7 2.4 8.6 5.6 2.5 4.8 2 10.5 2 15.7-0.2 5.2-2.9 10.8-8 12.7-5.3 1.9-11.5 1.4-16.5-1.3 0 5.7 0 11.3 0 17q-2.1 0-4.1 0 0-24.5 0-49.1 1.7 0 3.5 0c0.2 1.4 0.4 2.8 0.7 4.2zm2.8 1.1c-2.6 2.4-2.8 6.2-2.9 9.6 0 4.5 0 9.1 0 13.6 4.6 2.4 10.2 3.2 15 1.3 4-1.7 5.2-6.4 5.2-10.4 0-3.9 0.4-8-1.2-11.7-1-2.3-3.2-4.1-5.7-4.5-3.5-0.5-7.6-0.4-10.4 2.1z"/><path fill-rule="evenodd" class="a" d="m804.6 558c5.1-0.8 11.1-0.7 15.2 2.9 3.8 3.7 4 9.4 3.8 14.4 0.2 4.6-0.2 9.7-3.2 13.4-2.8 3.4-7.4 4.4-11.6 4.3-4.2 0.1-8.8-0.8-11.6-4.2-2.9-3.4-3-8-3.2-12.3 0-4.5 0-9.5 2.6-13.5 1.7-2.7 4.8-4.5 8-5zm-0.1 3.8c-4.5 1-6.1 6-6 10.1 0.1 4.6-0.7 9.7 1.7 13.9 1.8 2.9 5.5 3.6 8.6 3.6 3.2 0 6.9-0.6 8.7-3.5 2.5-4 1.7-8.8 1.9-13.3 0-3.7-0.8-8.2-4.4-10.2-3.2-1.5-7.1-1.4-10.5-0.6z"/><path class="a" d="m421 558.5q1.8-0.1 3.6 0 0.2 2.3 0.4 4.7c3-4.8 9.4-6.2 14.6-4.7q-0.4 1.8-0.8 3.6c-3.4-0.7-7.4-0.9-10.2 1.5-2.9 2.6-3.3 6.7-3.4 10.3-0.1 6.1 0 12.2-0.1 18.3q-2 0-4.1 0c0-11.2 0.1-22.5 0-33.7z"/><path class="a" d="m723.1 558.5q2.1-0.1 4.3 0c-0.1 11.2 0 22.5-0.1 33.7q-2.1 0-4.2 0c-0.1-11.2 0-22.5 0-33.7z"/><path class="a" d="m739.6 563.2c2.9-4.9 9.3-6.1 14.5-4.8q-0.3 1.8-0.7 3.6c-3.4-0.6-7.4-0.8-10.3 1.5-2.7 2.4-3.2 6.3-3.4 9.7-0.1 6.3 0 12.7 0 19q-2.2 0-4.3 0c0-11.2 0-22.5 0-33.8q1.9 0 3.7 0.1 0.2 2.4 0.5 4.7z"/><path class="a" d="m834.9 563.5c2.7-5.2 9.3-6.5 14.5-5q-0.4 1.8-0.8 3.6c-3.2-0.6-6.9-0.9-9.7 1.1-3 2.1-3.7 6-3.9 9.4-0.1 6.5 0 13.1 0 19.6q-2.2 0-4.3 0c0.1-11.3-0.1-22.5 0.1-33.8q1.8 0 3.6 0.1c0.1 1.6 0.3 3.3 0.5 5z"/><path class="a" d="m537.9 558.4q2.1 0 4.3 0c0 11.3 0 22.6 0 33.8-1.5 0-2.9 0-4.4-0.1 0.2-11.2 0.1-22.4 0.1-33.7z"/><path fill-rule="evenodd" class="b" d="m52.6 311.3q12.7 10.7 25.8 21c7.7 6 15.4 11.9 23.3 17.7 8.4 6.3 17 12.4 25.7 18.3q12.3 8.5 25.1 16.5c5.2 3.4 10.5 6.5 15.9 9.7 5.2 3 10.4 5.9 15.7 8.8 6.4 3.4 13 6.7 19.7 9.7q6.9 3.2 14.1 6c5.3 2 10.7 3.9 16.2 5.4 10.1 2.8 20.5 4.7 31 3.9-11.1-0.4-21.9-3.6-32.1-7.9q0.5-2.1 1-4.2c8.9 3.8 18.2 7.1 27.8 7.7-12.3-2-23.3-8.8-33-16.3q1.4-1.6 2.8-3.2c9 7.1 19.3 13.3 30.7 15.5 8.8 1.8 17.9 0.2 26.2-3 4-1.6 7.9-3.5 11.7-5.7 8.7-4.6 17-10.4 23.7-17.7 7.9-8.2 15.7-16.6 22-26.2 1.8-2.9 3.5-6 6.3-8.1 4.6-3.3 10.4-4.1 15.6-6.2 7.1-2.5 13.2-6.9 19.2-11.1 1.5-1.1 3.3-1.2 5.1-1.4-0.1 0.9-0.1 1.8-1 2.3-7 5.9-14.2 11.7-21.3 17.5-6.5 5.6-12.3 11.9-18.2 18-9 9.3-17.8 18.7-27 27.7-7.6 7.3-15.3 14.6-23.4 21.3-5.4 4.4-10.8 8.6-16.2 12.9-20.6 16.2-40.4 33.4-60.5 50.1q0 0 0 0 0 0 0 0-0.2-2.5-0.4-5.1 22.7-18.9 45.3-38c-1.3 0.5-2.7 0.9-3.9 1.8q-18.3 13.8-36.7 27.5-17.1 12.8-34.1 25.5c-10.8 8.2-21.7 16.3-32.5 24.5-9.9 7.4-19.9 14.8-29.8 22.3-15.3 11.4-30.6 23-45.9 34.4q-1.3-1.5-2.4-3.1c15.7-12 31.6-23.8 47.5-35.7 9.8-7.5 19.8-14.9 29.8-22.4 13.6-10.2 27.1-20.5 40.8-30.5 10.4-8 21-15.9 31.5-23.7 7.1-5.4 14.2-10.8 21.4-16-7 2-14 4-21.1 5.5-7.6 1.6-15.3 2.9-23 4-6.3 0.9-12.5 1.6-18.8 2.1q-8.4 0.8-16.8 1.2c-5.9 0.3-11.9 0.4-17.9 0.6q-7.9 0-15.8-0.2c-0.5-1.2-0.7-2.6-0.3-3.9 6.1-0.4 12.2 0.3 18.3-0.1 5.3-0.1 10.5-0.3 15.8-0.5 5.4-0.3 10.9-0.7 16.3-1.2q9.6-0.8 19.1-2.2 11.7-1.6 23.2-4.1c9.2-2 18.2-4.6 27.1-7.8-9.1 1.4-18.1 2.7-27.2 3.2-9.1 0.6-18.1 0.6-27.2 0.4-5.2-0.1-10.5-0.4-15.7-0.8-6.5-0.5-13.1-1.1-19.6-1.9q-9.1-1-18.1-2.5-8.8-1.4-17.5-3.1c-5.9-1.1-11.8-2.3-17.7-3.7-7.1-1.7-14.3-3.4-21.3-5.5 0.3-1.4 0.7-2.7 1.4-3.9 6.6 1.9 13.2 3.5 19.8 5.1q8.9 2.1 17.8 3.8 8.9 1.7 17.9 3.2 8.9 1.4 17.8 2.5c6.6 0.8 13.3 1.4 20 1.9 6.5 0.5 13 0.7 19.5 0.9q-0.1 1.6-0.2 3.3 0.1-1.7 0.2-3.3c7.6 0 15.3 0 23-0.6 8.4-0.4 16.8-1.6 25.1-2.8-8.6 0.3-17.3 0.9-25.9 0.3-9-0.5-18-1.6-27-3-8.2-1.4-16.4-3.1-24.5-5-6.5-1.5-12.9-3.3-19.3-5.1-8.2-2.4-16.3-4.9-24.2-7.7-6.9-2.3-13.7-4.8-20.4-7.4q-14.6-5.5-28.9-11.7-12.5-5.4-24.7-11.2c-8.5-4.2-17.1-7.9-25.1-12.8v-0.3c0.1 0 0.2 0.2 0.3 0.3q0.8-1.6 1.6-3.1c8.1 3.9 16.1 8.3 24.4 12q12.9 6.2 26.1 11.9 13.6 5.8 27.3 11.1c6.7 2.6 13.5 5 20.3 7.4q12.5 4.2 25.2 7.9c6 1.7 12.1 3.3 18.2 4.8q11.9 2.9 24 4.9c8.9 1.4 17.8 2.5 26.8 3 8.5 0.4 17.1 0.3 25.7-0.5 1.8-0.2 3.6-0.7 5.4-1.1-10.2 1.4-20.5 0.4-30.7-0.9q0 0 0 0 0 0 0 0-0.3-2.1-0.6-4.1c8.4 1.1 16.9 2.1 25.4 1.4-8.3-0.2-16.5-1.6-24.5-3.7-6.4-1.7-12.6-3.8-18.8-6.1-5.1-2-10.1-4.2-15.1-6.5-6.3-2.8-12.4-5.9-18.5-9.1q-7.9-4.3-15.7-8.8c-5.6-3.3-11.2-6.7-16.7-10.2q-13-8.2-25.5-16.9-13-9-25.7-18.5-11.4-8.5-22.5-17.4-13.1-10.3-25.9-21.2c-1.5-1.2-3-2.5-4.3-4q1.1-1.3 2.3-2.6c1.8 1 3.3 2.4 4.9 3.8zm171.9 179q-19.3 16.2-38.6 32.3c-11 9.2-22 18.4-32.9 27.6-9.1 7.6-18.3 15.2-27.4 22.9-9.1 7.7-18.4 15.4-27.5 23.1-4.6 3.7-9.1 7.6-13.6 11.3q-1.3-1.5-2.5-3c5.2-4.5 10.5-8.8 15.7-13.2q13.8-11.6 27.6-23.2c9.5-7.9 18.9-15.9 28.5-23.9 10.4-8.7 20.8-17.4 31.2-26.2 13.1-10.9 26.1-21.8 39.1-32.8q0.2 2.6 0.4 5.1 0 0 0 0zm8.5-69.9q0.5-2.1 1-4.2-7.2-3.1-14-6.9c-7.8-4.4-15.4-9.3-22.7-14.6l-3 3q-7-5.1-13.9-10.6-6.6-5.4-13.1-11-7.8-6.8-15.3-13.9c-5.5-5.2-11-10.6-16.4-16.1-5.7-6-11.5-12-17.1-18.2-4.2-4.7-8.4-9.4-12.4-14.3-1.5-1.6 1.3-2.5 2.2-3.5 4.3 5 8.6 10.1 13.1 14.9 5.6 6.3 11.4 12.4 17.3 18.4 5 5 10 10 15.1 14.9q7.9 7.5 16.2 14.7c4.4 3.8 8.8 7.5 13.4 11.2q6.8 5.4 13.9 10.5l-3 3c7.3 5.2 14.8 10.2 22.7 14.6 5.2 3 10.5 5.7 16 8.1zm-114.2-93q-0.2 0.2-0.3 0.5 0.1-0.3 0.3-0.5zm0.2-0.4q-0.1 0.2-0.2 0.4 0.1-0.2 0.2-0.4zm87 58.5q-7.6-8.6-14.5-17.9c-6.3-8.4-12.3-17.2-17.9-26.2-4.4-7.2-8.9-14.5-12.7-22.1q1.7-0.9 3.4-1.8c3.4 6 6.8 12 10.4 17.9 6.1 10 12.6 19.8 19.6 29.2q6.3 8.4 13.1 16.3c7.4 8.5 15.3 16.6 24.2 23.5q-1.4 1.6-2.8 3.2c-8.3-6.6-15.8-14.2-22.8-22.1zm-108.3 205.8q0.1 1.2 0.1 2.4 0-1.2-0.1-2.4zm135.5-160.2q0.3 2 0.6 4.1-12.6-1.9-25-5.2c-6.5-1.7-12.9-3.7-19.3-5.9q-7.5-2.6-15-5.4c-7.1-2.8-14.1-5.8-21.1-8.9-6-2.6-11.9-5.4-17.8-8.3-5.3-2.6-10.6-5.4-15.9-8.2-6-3.5-12.4-6.5-18.1-10.6 0.6-1 1.2-2 2.1-2.9 5.8 3 11.3 6.6 17.1 9.6 5.1 2.7 10.3 5.4 15.5 8 6 2.9 11.9 5.9 18 8.6 7.7 3.4 15.3 6.7 23.1 9.6 4.6 1.8 9.2 3.4 13.9 5q10.4 3.5 21 6.2c6.9 1.8 13.9 3.2 20.9 4.3zm-42.4-9.6q0.2-0.5 0.5-0.9-0.3 0.4-0.5 0.9zm97.8-2.7q-0.1-0.4-0.1-0.9 0 0.5 0.1 0.9zm-0.2 1q0 0.2-0.2 0.3 0.2-0.1 0.2-0.3 0.1-0.2 0.1-0.5 0 0.3-0.1 0.5zm-0.2 0.3q0 0 0 0.1-0.1 0.2-0.3 0.3 0.2-0.1 0.3-0.3 0-0.1 0-0.1zm63.1-44.5q0 0.7 0.1 1.4-0.1-0.7-0.1-1.4zm-120.9 96.5q-0.5 0.4-0.9 0.8 0.4-0.4 0.9-0.8z"/><path class="c" d="m45.4 310.1q1.1-1.3 2.3-2.6c1.8 1 3.3 2.4 4.9 3.8q12.7 10.7 25.8 21-1.4 1.5-2.8 3-13.1-10.3-25.9-21.2c-1.5-1.2-3-2.5-4.3-4z"/><path class="d" d="m106.1 313.6c-1.5-1.6 1.3-2.5 2.2-3.5 4.3 5 8.6 10.1 13.1 14.9-1.3 0.6-2.3 1.6-2.9 2.9-4.2-4.7-8.4-9.4-12.4-14.3z"/><path class="d" d="m98.1 352.7q1.7-1.6 3.6-2.7c8.4 6.3 17 12.4 25.7 18.3q-1.9 1.3-3.6 2.9-13-9-25.7-18.5z"/><path class="d" d="m101.6 382.7c0.6-1 1.2-2 2.1-2.9 5.8 3 11.3 6.6 17.1 9.6q-0.6 1.9-1.1 3.9c-6-3.5-12.4-6.5-18.1-10.6z"/><path class="e" d="m160.9 319.3q1.7-0.9 3.4-1.8c3.4 6 6.8 12 10.4 17.9-0.4 2-0.7 4-1.1 6-4.4-7.2-8.9-14.5-12.7-22.1z"/><path class="f" d="m118.5 327.9c0.6-1.3 1.6-2.3 2.9-2.9 5.6 6.3 11.4 12.4 17.3 18.4q-1.5 1.4-3.1 2.7c-5.7-6-11.5-12-17.1-18.2z"/><path class="f" d="m119.7 393.3q0.5-2 1.1-3.9c5.1 2.7 10.3 5.4 15.5 8q-0.4 2.1-0.7 4.1c-5.3-2.6-10.6-5.4-15.9-8.2z"/><path class="f" d="m118.9 409.7c6.7 2.6 13.5 5 20.3 7.4q-0.5 1.9-0.9 3.8c-6.9-2.3-13.7-4.8-20.4-7.4q0.5-1.9 1-3.8z"/><path class="g" d="m78.4 332.3c7.7 6 15.4 11.9 23.3 17.7q-1.9 1.1-3.6 2.7-11.3-8.5-22.5-17.4 1.4-1.5 2.8-3z"/><path class="h" d="m173.6 341.4c0.4-2 0.7-4 1.1-6 6.1 10 12.6 19.8 19.6 29.2q-1.4 1.5-2.8 3c-6.3-8.4-12.3-17.2-17.9-26.2z"/><path class="h" d="m174.5 418.7c0.7-1.3 1.7-2.4 2.9-3.1 4.6 1.8 9.2 3.4 13.9 5q-1 1.7-1.8 3.5-7.5-2.6-15-5.4z"/><path class="i" d="m387 341.9c1.5-1.1 3.3-1.2 5.1-1.4-0.1 0.9-0.1 1.8-1 2.3-7 5.9-14.2 11.7-21.3 17.5-6.5 5.6-12.3 11.9-18.2 18.1-0.7-3.7-0.2-7.3-0.5-10.9q-2.6-0.1-5.2-0.2c1.8-2.9 3.5-6 6.3-8 4.6-3.4 10.4-4.2 15.6-6.3 7.1-2.5 13.2-6.9 19.2-11.1z"/><path class="j" d="m135.6 346.1q1.6-1.3 3.1-2.7c5 5 10 10 15.1 14.9-1 1.1-1.5 2.5-1.8 3.9-5.5-5.2-11-10.6-16.4-16.1z"/><path class="k" d="m152 362.2c0.3-1.4 0.8-2.8 1.8-3.9q7.9 7.5 16.2 14.7-1.4 1.5-2.7 3.1-7.8-6.8-15.3-13.9z"/><path class="l" d="m194.3 364.6q6.3 8.4 13.1 16.3c-1.3 1.2-1.1 3-1.4 4.6q-7.6-8.6-14.5-17.9 1.4-1.5 2.8-3z"/><path class="m" d="m345.9 367.3q2.6 0.1 5.2 0.2c0.3 3.6-0.2 7.2 0.5 10.9-9 9.2-17.8 18.6-27 27.6-0.9-4.2 0.1-8.4-0.7-12.5 7.9-8.2 15.7-16.6 22-26.2z"/><path class="n" d="m123.8 371.2q1.7-1.6 3.6-2.9 12.3 8.5 25.1 16.5-1.7 1.6-3.2 3.3-13-8.2-25.5-16.9z"/><path class="o" d="m170 373c4.4 3.8 8.8 7.5 13.4 11.2-1.3 0.6-2.4 1.6-3 2.9q-6.6-5.4-13.1-11 1.3-1.6 2.7-3.1z"/><path class="o" d="m168.4 394.5c5.2 3 10.4 5.9 15.7 8.8-1.2 0.9-2 2.3-2.4 3.8q-7.9-4.3-15.7-8.8 1.2-1.9 2.4-3.8z"/><path class="p" d="m39.5 377.8q0.8-1.6 1.6-3.1c8.1 3.9 16.1 8.3 24.4 12q-0.6 2-1.2 3.9c-8.4-4.2-17.1-7.9-25.1-12.8v-0.3c0.1 0 0.2 0.2 0.3 0.3z"/><path class="q" d="m206 385.5c0.3-1.6 0.1-3.4 1.4-4.6 7.4 8.5 15.3 16.6 24.2 23.5q-1.4 1.6-2.8 3.2c-8.3-6.6-15.8-14.2-22.8-22.1z"/><path class="r" d="m180.4 387.1c0.6-1.3 1.7-2.3 3-2.9q6.8 5.4 13.9 10.5-1.5 1.5-3 3-7-5.1-13.9-10.6z"/><path class="s" d="m149.3 388.1q1.5-1.7 3.2-3.3c5.2 3.4 10.5 6.5 15.9 9.7q-1.2 1.9-2.4 3.8c-5.6-3.3-11.2-6.7-16.7-10.2z"/><path class="t" d="m64.3 390.6q0.6-1.9 1.2-3.9 12.9 6.2 26.1 11.9-1.3 1.6-2.6 3.2-12.5-5.4-24.7-11.2z"/><path class="u" d="m194.3 397.7q1.5-1.5 3-3c7.3 5.3 14.9 10.2 22.7 14.6q-1.5 1.6-3 3.1c-7.9-4.5-15.4-9.5-22.7-14.7z"/><path class="v" d="m136.3 397.4c6 2.9 11.9 5.9 18 8.6q-0.4 1.9-0.9 3.8c-6-2.6-11.9-5.4-17.8-8.3q0.3-2 0.7-4.1z"/><path class="v" d="m135.9 436.3q8.9 1.7 17.9 3.2-0.2 2-0.4 4.1-8.8-1.4-17.5-3.1 0-2.1 0-4.2z"/><path class="w" d="m91.6 398.6q13.6 5.8 27.3 11.1-0.5 1.9-1 3.8-14.6-5.5-28.9-11.7 1.3-1.6 2.6-3.2z"/><path class="x" d="m181.7 407.1c0.4-1.5 1.2-2.9 2.4-3.8 6.4 3.4 13 6.7 19.7 9.7q-2.1 1.3-3.6 3.2c-6.3-2.8-12.4-5.9-18.5-9.1z"/><path class="y" d="m154.3 406c7.7 3.4 15.3 6.7 23.1 9.6-1.2 0.7-2.2 1.8-2.9 3.1-7.1-2.8-14.1-5.8-21.1-8.9q0.5-1.9 0.9-3.8z"/><path class="z" d="m220 409.3q6.8 3.8 14 6.9-0.5 2.1-1 4.2c-5.5-2.4-10.8-5.1-16-8q1.5-1.5 3-3.1z"/><path class="A" d="m200.2 416.2q1.5-1.9 3.6-3.2 6.9 3.2 14.1 6-1.4 1.8-2.6 3.7c-5.1-2-10.1-4.2-15.1-6.5z"/><path class="B" d="m139.2 417.1q12.5 4.2 25.2 7.9c-0.8 1.1-1.6 2.2-1.9 3.6-8.2-2.4-16.3-4.9-24.2-7.7q0.4-1.9 0.9-3.8z"/><path class="C" d="m217.9 419c5.3 2 10.7 3.9 16.2 5.4q0 2.2 0 4.4c-6.4-1.7-12.6-3.8-18.8-6.1q1.2-1.9 2.6-3.7z"/><path class="D" d="m191.3 420.6q10.4 3.5 21 6.2-1.9 1.4-3.5 3.2c-6.5-1.7-12.9-3.7-19.3-5.9q0.8-1.8 1.8-3.5z"/><path class="E" d="m164.4 425c6 1.7 12.1 3.3 18.2 4.8q-0.4 1.9-0.8 3.9c-6.5-1.5-12.9-3.3-19.3-5.1 0.3-1.4 1.1-2.5 1.9-3.6z"/><path class="F" d="m208.8 430q1.6-1.8 3.5-3.2c6.9 1.8 13.9 3.2 20.9 4.3q0.3 2 0.6 4.1-12.6-1.9-25-5.2z"/><path class="F" d="m211.1 444.8c7.6 0 15.3 0 23-0.6q-0.1 2.1-0.1 4.2c-9.1 0.6-18.1 0.6-27.2 0.4q2-0.4 4.1-0.7 0.1-1.7 0.2-3.3z"/><path class="G" d="m96.9 431.3c0.3-1.4 0.7-2.7 1.4-3.9 6.6 1.9 13.2 3.5 19.8 5.1q0.1 2.1 0.1 4.3c-7.1-1.7-14.3-3.4-21.3-5.5z"/><path class="G" d="m84.1 580.1c15.7-12 31.6-23.8 47.5-35.7q0.4 2.2 0.8 4.4c-15.3 11.4-30.6 23-45.9 34.4q-1.3-1.5-2.4-3.1z"/><path class="H" d="m182.6 429.8q11.9 2.9 24 4.9-0.1 2-0.3 4c-8.2-1.4-16.4-3.1-24.5-5q0.4-2 0.8-3.9z"/><path class="I" d="m118.1 432.5q8.9 2.1 17.8 3.8 0 2.1 0 4.2c-5.9-1.1-11.8-2.3-17.7-3.7q0-2.2-0.1-4.3z"/><path class="J" d="m206.6 434.7c8.9 1.4 17.8 2.5 26.8 3q-0.1 2-0.1 4c-9-0.5-18-1.6-27-3q0.2-2 0.3-4z"/><path class="K" d="m153.8 439.5q8.9 1.4 17.8 2.5-0.1 2-0.1 4.1-9.1-1-18.1-2.5 0.2-2.1 0.4-4.1z"/><path class="L" d="m171.6 442c6.6 0.8 13.3 1.4 20 1.9q-0.3 2-0.5 4.1c-6.5-0.5-13.1-1.1-19.6-1.9q0-2.1 0.1-4.1z"/><path class="M" d="m191.6 443.9c6.5 0.5 13 0.7 19.5 0.9q-0.1 1.6-0.2 3.3-2.1 0.3-4.1 0.7c-5.2-0.1-10.5-0.4-15.7-0.8q0.2-2.1 0.5-4.1z"/><path class="M" d="m191.8 459.3q9.6-0.8 19.1-2.2 0 2.1 0.1 4.2c-6.3 0.9-12.5 1.6-18.8 2.1q-0.2-2-0.4-4.1z"/><path class="N" d="m210.9 457.1q11.7-1.6 23.2-4.1 0 2.1-0.1 4.3c-7.6 1.6-15.3 2.9-23 4q-0.1-2.1-0.1-4.2z"/><path class="O" d="m175.5 460.5c5.4-0.3 10.9-0.7 16.3-1.2q0.2 2.1 0.4 4.1-8.4 0.8-16.8 1.2 0.1-2.1 0.1-4.1z"/><path class="P" d="m141.4 461.1c6.1-0.4 12.2 0.3 18.3-0.1-2.1 0.4-2.1 2.4-2.2 4.2q-7.9 0-15.8-0.2c-0.5-1.2-0.7-2.6-0.3-3.9z"/><path class="Q" d="m159.7 461c5.3-0.1 10.5-0.3 15.8-0.5q0 2-0.1 4.1c-5.9 0.3-11.9 0.4-17.9 0.6 0.1-1.8 0.1-3.8 2.2-4.2z"/><path class="R" d="m202.2 491.5c10.4-8 21-15.9 31.5-23.7-0.5 3.1-4.3 4.2-5.4 6.9 0.1 0.5 0.3 1.4 0.5 1.8q-17.1 12.8-34.1 25.5c-0.5-2.6 2.1-4 3.6-5.7 1.4-1.5 3.4-2.7 3.9-4.8z"/><path class="S" d="m185 518c13.1-10.9 26.1-21.8 39.1-32.8q0.2 2.6 0.4 5.1-19.3 16.2-38.6 32.3-0.5-2.3-0.9-4.6z"/><path class="T" d="m161.4 522c13.6-10.2 27.1-20.5 40.8-30.5-0.5 2.1-2.5 3.3-3.9 4.8-1.5 1.7-4.1 3.1-3.6 5.7-10.8 8.2-21.7 16.3-32.5 24.5q-0.6-2.2-0.8-4.5z"/><path class="U" d="m153.8 544.2c10.4-8.7 20.8-17.4 31.2-26.2q0.4 2.3 0.9 4.6c-11 9.2-22 18.4-32.9 27.6-1-2 0.4-4 0.8-6z"/><path class="V" d="m131.6 544.4c9.8-7.5 19.8-14.9 29.8-22.4q0.2 2.3 0.8 4.5c-9.9 7.4-19.9 14.8-29.8 22.3q-0.4-2.2-0.8-4.4z"/><path class="W" d="m125.3 568.1c9.5-7.9 18.9-15.9 28.5-23.9-0.4 2-1.8 4-0.8 6-9.1 7.6-18.3 15.2-27.4 22.9q-0.2-2.5-0.3-5z"/><path class="X" d="m97.7 591.3q13.8-11.6 27.6-23.2 0.1 2.5 0.3 5c-9.1 7.7-18.4 15.4-27.5 23.1q-0.3-2.5-0.4-4.9z"/><path class="Y" d="m82 604.5c5.2-4.5 10.5-8.8 15.7-13.2q0.1 2.4 0.4 4.9c-4.6 3.7-9.1 7.6-13.6 11.3q-1.3-1.5-2.5-3z"/><path fill-rule="evenodd" class="Z" d="m324.6 406c-7.6 7.3-15.3 14.6-23.4 21.3-5.4 4.4-10.8 8.6-16.2 12.9-0.6-4.9-0.3-9.9-0.3-14.9q0-0.4 0-0.7v-6.4l1.9-0.6 1.9-0.7c4-1.6 7.9-3.5 11.7-5.7 8.7-4.6 17-10.4 23.7-17.7 0.8 4.1-0.2 8.3 0.7 12.5zm-36.1 12.2v-0.7q0-0.1 0-0.1z"/><path class="a0" d="m231.6 404.4q-1.4 1.6-2.8 3.2c9.7 7.5 20.7 14.3 33 16.3-9.6-0.6-18.9-3.9-27.8-7.7q-0.5 2.1-1 4.2c10.2 4.3 21 7.5 32.1 8-10.5 0.7-20.9-1.2-31-4q0 2.2 0 4.4c8 2.1 16.2 3.5 24.5 3.7-8.5 0.7-17-0.3-25.4-1.4q0.3 2 0.6 4.1c10.2 1.3 20.5 2.3 30.7 0.9-1.8 0.4-3.6 0.9-5.4 1.1-8.6 0.8-17.2 0.9-25.7 0.5q-0.1 2-0.1 4c8.6 0.6 17.3 0 25.9-0.3-8.3 1.2-16.7 2.4-25.1 2.8q-0.1 2.1-0.1 4.2c9.1-0.5 18.1-1.8 27.2-3.2-8.9 3.2-17.9 5.8-27.1 7.8q0 2.1-0.1 4.3c7.1-1.5 14.1-3.5 21.1-5.5-7.2 5.2-14.3 10.6-21.4 16-0.5 3.1-4.3 4.2-5.4 6.9 0.1 0.5 0.3 1.4 0.5 1.8q18.4-13.7 36.7-27.5c1.2-0.9 2.6-1.3 3.9-1.8q-22.6 19.1-45.3 38 0.2 2.6 0.4 5.1c20.1-16.7 39.9-33.9 60.5-50.1l11.2-26.7-4.6 2.1-3.1 1.3-2 0.7-1.5 0.5c-7.3 2.4-15.1 3.3-22.7 1.8-11.4-2.2-21.7-8.4-30.7-15.5z"/><path fill-rule="evenodd" class="a1" d="m285 440.2l11.2-26.7-4.6 2.1-3.1 1.3-3.8 1.3z"/></svg>